<?xml version="1.0" encoding="UTF-8"?>
<svg id="Camada_1" data-name="Camada 1" xmlns="http://www.w3.org/2000/svg" xmlns:xlink="http://www.w3.org/1999/xlink" viewBox="291 405 3060 582">
  <defs>
    <linearGradient id="Gradiente_sem_nome_4562" data-name="Gradiente sem nome 4562" x1="320.43" y1="936.65" x2="1153.22" y2="455.84" gradientUnits="userSpaceOnUse">
      <stop offset=".06" stop-color="#6539e8"/>
      <stop offset=".19" stop-color="#666aff"/>
      <stop offset=".41" stop-color="#1c7aff"/>
      <stop offset=".63" stop-color="#2c38c6"/>
      <stop offset="1" stop-color="#0013ff"/>
    </linearGradient>
  </defs>
  <g>
    <path d="M2548.2,940.49c-17.52,0-31.73-14.2-31.73-31.73v-214.15c0-27.78,3.87-52.68,11.61-74.72,7.74-22.03,18.86-40.88,33.34-56.55,14.49-15.69,31.95-27.69,52.39-36.02,20.45-8.33,43.17-12.5,68.17-12.5s48.52,4.17,69.36,12.5c20.84,8.34,38.8,19.95,53.88,34.83,15.09,14.88,26.79,32.54,35.13,52.99,8.33,20.44,12.5,42.96,12.5,67.57,0,23.01-3.77,44.25-11.31,63.7-7.54,19.45-17.95,35.92-31.25,49.41-13.29,13.49-29.26,24.11-47.93,31.85-18.65,7.74-39.09,11.61-61.32,11.61-19.84,0-38.49-2.98-55.96-8.93-17.46-5.95-33.8-12.74-49.22-21.75-18.52-10.82-34.58-22.14-47.62-34.15-11.93-10.99-24.89-18.59-35.07-28.4-18.98-18.29-36.49-37.68-45.75-53.03-18.57-30.8-38.3-48.65-49.75-68.39-13.5-23.29-19.35-34.83-44.3-51.23-.6-.39,9.39-28.93,9.41-29.58,0,0,20.63,6.66,26.02,11.25,12.46,10.63,27.85,24.98,44.19,51.35,6.19,9.99,31.44,58.22,63.49,95.09,34.72,39.95,67.53,59.68,78.88,67.8,28.13,20.14,57.65,34.23,94.96,34.23,18.66,0,35.72-2.88,51.2-8.63,15.48-5.75,28.57-13.99,39.29-24.7,10.72-10.72,19.05-23.52,25-38.4,5.95-14.88,8.93-31.46,8.93-49.71,0-19.45-3.17-37.12-9.53-52.99-6.34-15.88-15.38-29.57-27.09-41.08-11.7-11.52-25.69-20.54-41.97-27.09-16.27-6.55-34.32-9.82-54.17-9.82s-37,3.17-52.69,9.52c-15.67,6.35-29.07,15.48-40.18,27.39-11.1,11.91-19.65,26.39-25.6,43.46-5.96,17.06-8.93,36.51-8.93,58.35v244.26c0,3.52-2.86,6.38-6.38,6.38Z" style="fill: #1c2628;"/>
    <path d="M2161.53,940.49c-17.52,0-31.73-14.2-31.73-31.73v-214.15c0-27.78,3.87-52.68,11.61-74.72,7.74-22.03,18.86-40.88,33.34-56.55,14.49-15.69,31.95-27.69,52.39-36.02,20.45-8.33,43.17-12.5,68.17-12.5s48.52,4.17,69.36,12.5c20.84,8.34,38.8,19.95,53.88,34.83,15.09,14.88,26.79,32.54,35.13,52.99,8.33,20.44,12.5,42.96,12.5,67.57,0,23.01-3.77,44.25-11.31,63.7-7.54,19.45-17.95,35.92-31.25,49.41-13.29,13.49-29.26,24.11-47.93,31.85-18.65,7.74-39.09,11.61-61.32,11.61-19.84,0-38.49-2.98-55.96-8.93-17.46-5.95-33.8-12.74-49.22-21.75-18.52-10.82-33.1-23.99-47.62-34.15-17.3-12.11-.93-15.4-24.51-34.48-.5-.41-3.34-40.59-3.32-41.24,0,0,1.78-9.69,6.68-4.58,18.07,18.84,15.4,22.39,18.64,33.49,4.84,16.59,22.97,30.2,44.37,45.51,28.13,20.14,62.92,30.39,100.22,30.39,18.66,0,35.72-2.88,51.2-8.63,15.48-5.75,28.57-13.99,39.29-24.7,10.72-10.72,19.05-23.52,25-38.4,5.95-14.88,8.93-31.46,8.93-49.71,0-19.45-3.17-37.12-9.53-52.99-6.34-15.88-15.38-29.57-27.09-41.08-11.7-11.52-25.69-20.54-41.97-27.09-16.27-6.55-34.32-9.82-54.17-9.82s-37,3.17-52.69,9.52c-15.67,6.35-29.07,15.48-40.18,27.39-11.1,11.91-19.65,26.39-25.6,43.46-5.96,17.06-8.93,36.51-8.93,58.35v244.26c0,3.52-2.86,6.38-6.38,6.38h0Z" style="fill: #1c2628;"/>
    <path d="M1774.46,524.94c8.51,0,15.41,6.9,15.41,15.41v130.45c0,21.43,2.87,40.69,8.63,57.75,5.75,17.07,13.99,31.46,24.7,43.17,10.72,11.71,23.71,20.74,39,27.09,15.27,6.35,32.64,9.52,52.09,9.52s36.91-3.17,52.39-9.52c15.48-6.35,28.67-15.48,39.59-27.39,10.91-11.91,19.25-26.39,25.01-43.46,5.74-17.06,8.63-36.11,8.63-57.15v-130.45c0-8.51,6.9-15.41,15.41-15.41h6.1c8.51,0,15.41,6.9,15.41,15.41v128.66c0,27-3.77,51.3-11.31,72.93-7.54,21.64-18.36,39.99-32.44,55.07-14.09,15.09-31.16,26.7-51.2,34.83-20.05,8.13-42.57,12.2-67.57,12.2s-47.53-4.07-67.57-12.2c-20.05-8.13-37.12-19.74-51.2-34.83-14.1-15.08-24.91-33.43-32.44-55.07-7.55-21.63-11.31-45.93-11.31-72.93v-128.66c0-8.51,6.9-15.41,15.41-15.41h7.29Z" style="fill: #1c2628;"/>
    <path d="M2912.42,418.38h1.57c16.37,0,29.65,13.27,29.65,29.65v375.94c0,5.17-4.19,9.36-9.36,9.36h-19.38c-5.17,0-9.36-4.19-9.36-9.36v-398.7c0-3.8,3.08-6.89,6.89-6.89Z" style="fill: #1c2628;"/>
    <path d="M3320.48,725.69c0,1.88-.45,3.75-1.33,5.41-18.46,34.87-41.92,61.6-70.41,80.21-29.17,19.05-62.21,28.57-99.12,28.57-22.62,0-43.16-3.77-61.62-11.31-18.46-7.54-33.94-18.35-46.44-32.45-12.5-14.08-22.13-31.45-28.87-52.09-6.75-20.63-10.12-43.85-10.12-69.65v-138.05c0-6.29,5.1-11.38,11.38-11.38h15.33c6.29,0,11.38,5.1,11.38,11.38v133.88c0,42.87,10.42,75.91,31.26,99.12,20.84,23.22,50.5,34.83,89,34.83,16.27,0,31.45-2.18,45.54-6.55,14.08-4.37,27.68-11.4,40.78-21.13,13.1-9.73,25.6-22.03,37.51-36.92,5-6.25,10-13.04,15-20.37,6.28-9.21,20.72-4.64,20.72,6.5h0ZM3312.22,524.94h15.33c6.29,0,11.38,5.1,11.38,11.38v258.9c0,27.39-3.97,52.19-11.91,74.42-7.94,22.22-19.25,41.17-33.93,56.85-14.69,15.68-32.55,27.69-53.58,36.02-21.04,8.33-44.65,12.5-70.85,12.5-16.28,0-33.14-1.69-50.6-5.06-13.63-2.64-26.76-6.05-39.42-10.25-5.91-1.96-9.25-8.19-7.45-14.16h0c3.36-11.14,15.2-17.13,26.3-13.62,7.22,2.28,14.57,4.14,22.06,5.58,14.48,2.77,29.07,4.17,43.76,4.17,21.83,0,41.28-3.27,58.35-9.82,17.06-6.55,31.45-15.88,43.16-27.98,11.7-12.11,20.63-27.19,26.79-45.25,6.15-18.06,9.23-38.59,9.23-61.62v-260.69c0-6.29,5.1-11.38,11.38-11.38Z" style="fill: #1c2628;"/>
    <path d="M1667.66,418.38c17.52,0,31.73,14.2,31.73,31.73v214.15c0,27.78-3.87,52.68-11.61,74.72-7.74,22.03-18.86,40.88-33.34,56.55-14.49,15.69-31.95,27.69-52.39,36.02-20.45,8.33-43.17,12.5-68.17,12.5s-48.52-4.17-69.36-12.5c-20.84-8.34-38.8-19.95-53.88-34.83-15.09-14.88-26.79-32.54-35.13-52.99-8.33-20.44-12.5-42.96-12.5-67.57,0-23.01,3.77-44.25,11.31-63.7,7.54-19.45,17.95-35.92,31.25-49.41,13.29-13.49,29.26-24.11,47.93-31.85,18.65-7.74,39.09-11.61,61.32-11.61,19.84,0,38.49,2.98,55.96,8.93,17.46,5.95,33.34,14.29,47.63,25,14.29,10.72,26.39,23.43,36.32,38.1,9.74,14.43,16.8,30.38,21.19,47.87.16.63.22,1.28.2,1.93l-.32,8.12c-.27,6.8-9.66,8.54-12.23,2.24-10.35-25.35-24.71-46.1-43.08-62.23-26-22.82-57.65-34.23-94.96-34.23-18.66,0-35.72,2.88-51.2,8.63-15.48,5.75-28.57,13.99-39.29,24.7-10.72,10.72-19.05,23.52-25,38.4-5.95,14.88-8.93,31.46-8.93,49.71,0,19.45,3.17,37.12,9.53,52.99,6.34,15.88,15.38,29.57,27.09,41.08,11.7,11.52,25.69,20.54,41.97,27.09,16.27,6.55,34.32,9.82,54.17,9.82s37-3.17,52.69-9.52c15.67-6.35,29.07-15.48,40.18-27.39,11.1-11.91,19.65-26.39,25.6-43.46,5.96-17.06,8.93-36.51,8.93-58.35v-244.26c0-3.52,2.86-6.38,6.38-6.38h0Z" style="fill: #1c2628;"/>
  </g>
  <rect x="303.39" y="417.46" width="866.88" height="557.56" rx="92.79" ry="92.79" style="fill: url(#Gradiente_sem_nome_4562);"/>
  <path d="M1066.62,643.58c-7.62-18.68-18.31-34.81-32.09-48.41-13.78-13.6-30.19-24.2-49.23-31.82-19.04-7.61-40.15-11.42-63.37-11.42s-43.6,3.81-62.28,11.42c-18.67,7.62-34.62,18.58-47.87,32.91-13.23,14.32-23.39,31.54-30.46,51.67-6.74,19.18-10.16,40.82-10.48,64.77-16.3-17.42-33.16-35.62-48.54-51.93-6.16-6.54-8.63-9.84-19.37-21.26v-144.54c0-16.01-12.98-28.99-28.99-28.99-3.22,0-5.83,2.61-5.83,5.83v140.89c-10.79-9.13-23.38-17.85-37.71-26.22-14.09-8.23-29.02-14.43-44.97-19.87-15.96-5.44-33-8.16-51.13-8.16-20.31,0-38.98,3.54-56.02,10.61-17.05,7.07-31.64,16.78-43.79,29.1-12.15,12.33-21.67,27.38-28.56,45.15-6.89,17.77-10.33,37.17-10.33,58.2,0,22.49,3.81,43.06,11.42,61.74,7.62,18.68,18.31,34.81,32.09,48.41,13.78,13.6,30.19,24.21,49.23,31.82,19.04,7.61,40.15,11.42,63.37,11.42s43.6-3.81,62.28-11.42c18.67-7.62,34.62-18.58,47.87-32.91,13.23-14.32,23.39-31.54,30.46-51.67,7.07-20.13,10.61-42.88,10.61-68.26v-8.06c7.51,6.95,11.83,14.16,67.78,75.14v154.14c0,16.01,12.98,28.99,28.99,28.99,3.22,0,5.83-2.61,5.83-5.83v-140.24c10.39,9.33,23.56,17.31,37.71,25.58,14.09,8.23,29.02,14.43,44.97,19.87,15.96,5.44,33,8.16,51.13,8.16,20.31,0,38.98-3.54,56.02-10.61,17.05-7.07,31.64-16.78,43.79-29.1,12.15-12.33,21.67-27.38,28.56-45.15,6.89-17.77,10.33-37.17,10.33-58.2,0-22.49-3.81-43.06-11.42-61.74ZM659.96,748.28c-5.44,15.59-13.24,28.83-23.39,39.71-10.15,10.88-22.4,19.22-36.71,25.02-14.33,5.8-30.38,8.7-48.14,8.7s-34.63-2.99-49.49-8.97c-14.87-5.98-27.66-14.23-38.35-24.75-10.7-10.51-18.95-23.02-24.75-37.53-5.81-14.5-8.7-30.64-8.7-48.41,0-16.67,2.72-31.82,8.16-45.41,5.44-13.6,13.05-25.29,22.84-35.08,9.79-9.79,21.76-17.31,35.9-22.57,14.14-5.25,29.73-7.89,46.78-7.89,34.08,0,61.05,12.88,86.76,31.28,6.24,4.47,20.19,14.92,37.26,28.82v43.79c0,19.95-2.72,37.72-8.16,53.31ZM1035.07,750.18c-5.44,13.6-13.05,25.29-22.84,35.08-9.79,9.79-21.76,17.31-35.9,22.57-14.14,5.25-29.73,7.89-46.78,7.89-34.08,0-61.05-12.88-86.76-31.28-7.68-5.5-21.13-18.57-37.26-35.2v-37.41c0-19.95,2.72-37.72,8.16-53.31,5.44-15.59,13.24-28.83,23.39-39.7,10.15-10.88,22.4-19.22,36.71-25.02,14.33-5.8,30.38-8.7,48.14-8.7s34.63,2.99,49.49,8.97c14.87,5.98,27.66,14.23,38.35,24.75,10.7,10.51,18.95,23.02,24.75,37.53,5.81,14.5,8.7,30.64,8.7,48.41,0,16.67-2.72,31.82-8.16,45.41Z" style="fill: #fff;"/>
</svg>